<mxfile host="app.diagrams.net" modified="2021-09-29T14:34:51.354Z" agent="5.0 (Windows NT 10.0; Win64; x64) AppleWebKit/537.36 (KHTML, like Gecko) Chrome/94.0.4606.61 Safari/537.36" etag="E-NKZVJDyjI1CC6NZwxC" version="15.0.3" type="github">
  <diagram id="R2lEEEUBdFMjLlhIrx00" name="Page-1">
    <mxGraphModel dx="1422" dy="754" grid="1" gridSize="10" guides="1" tooltips="1" connect="1" arrows="1" fold="1" page="1" pageScale="1" pageWidth="850" pageHeight="1100" math="0" shadow="0" extFonts="Permanent Marker^https://fonts.googleapis.com/css?family=Permanent+Marker">
      <root>
        <mxCell id="0" />
        <mxCell id="1" parent="0" />
        <mxCell id="h9LaXiWzkKwQNLDJP15n-1" value="users" style="shape=table;startSize=30;container=1;collapsible=1;childLayout=tableLayout;fixedRows=1;rowLines=0;fontStyle=1;align=center;resizeLast=1;" vertex="1" parent="1">
          <mxGeometry y="290" width="250" height="310" as="geometry" />
        </mxCell>
        <mxCell id="h9LaXiWzkKwQNLDJP15n-2" value="" style="shape=partialRectangle;collapsible=0;dropTarget=0;pointerEvents=0;fillColor=none;top=0;left=0;bottom=1;right=0;points=[[0,0.5],[1,0.5]];portConstraint=eastwest;" vertex="1" parent="h9LaXiWzkKwQNLDJP15n-1">
          <mxGeometry y="30" width="250" height="30" as="geometry" />
        </mxCell>
        <mxCell id="h9LaXiWzkKwQNLDJP15n-3" value="PK" style="shape=partialRectangle;connectable=0;fillColor=none;top=0;left=0;bottom=0;right=0;fontStyle=1;overflow=hidden;" vertex="1" parent="h9LaXiWzkKwQNLDJP15n-2">
          <mxGeometry width="30" height="30" as="geometry" />
        </mxCell>
        <mxCell id="h9LaXiWzkKwQNLDJP15n-4" value="id" style="shape=partialRectangle;connectable=0;fillColor=none;top=0;left=0;bottom=0;right=0;align=left;spacingLeft=6;fontStyle=5;overflow=hidden;" vertex="1" parent="h9LaXiWzkKwQNLDJP15n-2">
          <mxGeometry x="30" width="90" height="30" as="geometry" />
        </mxCell>
        <mxCell id="h9LaXiWzkKwQNLDJP15n-39" value="unique" style="shape=partialRectangle;connectable=0;fillColor=none;top=0;left=0;bottom=0;right=0;align=left;spacingLeft=6;fontStyle=5;overflow=hidden;" vertex="1" parent="h9LaXiWzkKwQNLDJP15n-2">
          <mxGeometry x="120" width="130" height="30" as="geometry" />
        </mxCell>
        <mxCell id="h9LaXiWzkKwQNLDJP15n-5" value="" style="shape=partialRectangle;collapsible=0;dropTarget=0;pointerEvents=0;fillColor=none;top=0;left=0;bottom=0;right=0;points=[[0,0.5],[1,0.5]];portConstraint=eastwest;" vertex="1" parent="h9LaXiWzkKwQNLDJP15n-1">
          <mxGeometry y="60" width="250" height="30" as="geometry" />
        </mxCell>
        <mxCell id="h9LaXiWzkKwQNLDJP15n-6" value="" style="shape=partialRectangle;connectable=0;fillColor=none;top=0;left=0;bottom=0;right=0;editable=1;overflow=hidden;" vertex="1" parent="h9LaXiWzkKwQNLDJP15n-5">
          <mxGeometry width="30" height="30" as="geometry" />
        </mxCell>
        <mxCell id="h9LaXiWzkKwQNLDJP15n-7" value="team" style="shape=partialRectangle;connectable=0;fillColor=none;top=0;left=0;bottom=0;right=0;align=left;spacingLeft=6;overflow=hidden;" vertex="1" parent="h9LaXiWzkKwQNLDJP15n-5">
          <mxGeometry x="30" width="90" height="30" as="geometry" />
        </mxCell>
        <mxCell id="h9LaXiWzkKwQNLDJP15n-40" value="nullable" style="shape=partialRectangle;connectable=0;fillColor=none;top=0;left=0;bottom=0;right=0;align=left;spacingLeft=6;overflow=hidden;" vertex="1" parent="h9LaXiWzkKwQNLDJP15n-5">
          <mxGeometry x="120" width="130" height="30" as="geometry" />
        </mxCell>
        <mxCell id="h9LaXiWzkKwQNLDJP15n-146" style="shape=partialRectangle;collapsible=0;dropTarget=0;pointerEvents=0;fillColor=none;top=0;left=0;bottom=0;right=0;points=[[0,0.5],[1,0.5]];portConstraint=eastwest;" vertex="1" parent="h9LaXiWzkKwQNLDJP15n-1">
          <mxGeometry y="90" width="250" height="30" as="geometry" />
        </mxCell>
        <mxCell id="h9LaXiWzkKwQNLDJP15n-147" style="shape=partialRectangle;connectable=0;fillColor=none;top=0;left=0;bottom=0;right=0;editable=1;overflow=hidden;" vertex="1" parent="h9LaXiWzkKwQNLDJP15n-146">
          <mxGeometry width="30" height="30" as="geometry" />
        </mxCell>
        <mxCell id="h9LaXiWzkKwQNLDJP15n-148" value="team_number" style="shape=partialRectangle;connectable=0;fillColor=none;top=0;left=0;bottom=0;right=0;align=left;spacingLeft=6;overflow=hidden;" vertex="1" parent="h9LaXiWzkKwQNLDJP15n-146">
          <mxGeometry x="30" width="90" height="30" as="geometry" />
        </mxCell>
        <mxCell id="h9LaXiWzkKwQNLDJP15n-149" value="nullable" style="shape=partialRectangle;connectable=0;fillColor=none;top=0;left=0;bottom=0;right=0;align=left;spacingLeft=6;overflow=hidden;" vertex="1" parent="h9LaXiWzkKwQNLDJP15n-146">
          <mxGeometry x="120" width="130" height="30" as="geometry" />
        </mxCell>
        <mxCell id="h9LaXiWzkKwQNLDJP15n-150" style="shape=partialRectangle;collapsible=0;dropTarget=0;pointerEvents=0;fillColor=none;top=0;left=0;bottom=0;right=0;points=[[0,0.5],[1,0.5]];portConstraint=eastwest;" vertex="1" parent="h9LaXiWzkKwQNLDJP15n-1">
          <mxGeometry y="120" width="250" height="30" as="geometry" />
        </mxCell>
        <mxCell id="h9LaXiWzkKwQNLDJP15n-151" style="shape=partialRectangle;connectable=0;fillColor=none;top=0;left=0;bottom=0;right=0;editable=1;overflow=hidden;" vertex="1" parent="h9LaXiWzkKwQNLDJP15n-150">
          <mxGeometry width="30" height="30" as="geometry" />
        </mxCell>
        <mxCell id="h9LaXiWzkKwQNLDJP15n-152" value="name" style="shape=partialRectangle;connectable=0;fillColor=none;top=0;left=0;bottom=0;right=0;align=left;spacingLeft=6;overflow=hidden;" vertex="1" parent="h9LaXiWzkKwQNLDJP15n-150">
          <mxGeometry x="30" width="90" height="30" as="geometry" />
        </mxCell>
        <mxCell id="h9LaXiWzkKwQNLDJP15n-153" style="shape=partialRectangle;connectable=0;fillColor=none;top=0;left=0;bottom=0;right=0;align=left;spacingLeft=6;overflow=hidden;" vertex="1" parent="h9LaXiWzkKwQNLDJP15n-150">
          <mxGeometry x="120" width="130" height="30" as="geometry" />
        </mxCell>
        <mxCell id="h9LaXiWzkKwQNLDJP15n-8" value="" style="shape=partialRectangle;collapsible=0;dropTarget=0;pointerEvents=0;fillColor=none;top=0;left=0;bottom=0;right=0;points=[[0,0.5],[1,0.5]];portConstraint=eastwest;" vertex="1" parent="h9LaXiWzkKwQNLDJP15n-1">
          <mxGeometry y="150" width="250" height="30" as="geometry" />
        </mxCell>
        <mxCell id="h9LaXiWzkKwQNLDJP15n-9" value="" style="shape=partialRectangle;connectable=0;fillColor=none;top=0;left=0;bottom=0;right=0;editable=1;overflow=hidden;" vertex="1" parent="h9LaXiWzkKwQNLDJP15n-8">
          <mxGeometry width="30" height="30" as="geometry" />
        </mxCell>
        <mxCell id="h9LaXiWzkKwQNLDJP15n-10" value="email" style="shape=partialRectangle;connectable=0;fillColor=none;top=0;left=0;bottom=0;right=0;align=left;spacingLeft=6;overflow=hidden;" vertex="1" parent="h9LaXiWzkKwQNLDJP15n-8">
          <mxGeometry x="30" width="90" height="30" as="geometry" />
        </mxCell>
        <mxCell id="h9LaXiWzkKwQNLDJP15n-41" value="unique" style="shape=partialRectangle;connectable=0;fillColor=none;top=0;left=0;bottom=0;right=0;align=left;spacingLeft=6;overflow=hidden;" vertex="1" parent="h9LaXiWzkKwQNLDJP15n-8">
          <mxGeometry x="120" width="130" height="30" as="geometry" />
        </mxCell>
        <mxCell id="h9LaXiWzkKwQNLDJP15n-11" value="" style="shape=partialRectangle;collapsible=0;dropTarget=0;pointerEvents=0;fillColor=none;top=0;left=0;bottom=0;right=0;points=[[0,0.5],[1,0.5]];portConstraint=eastwest;" vertex="1" parent="h9LaXiWzkKwQNLDJP15n-1">
          <mxGeometry y="180" width="250" height="30" as="geometry" />
        </mxCell>
        <mxCell id="h9LaXiWzkKwQNLDJP15n-12" value="" style="shape=partialRectangle;connectable=0;fillColor=none;top=0;left=0;bottom=0;right=0;editable=1;overflow=hidden;" vertex="1" parent="h9LaXiWzkKwQNLDJP15n-11">
          <mxGeometry width="30" height="30" as="geometry" />
        </mxCell>
        <mxCell id="h9LaXiWzkKwQNLDJP15n-13" value="password" style="shape=partialRectangle;connectable=0;fillColor=none;top=0;left=0;bottom=0;right=0;align=left;spacingLeft=6;overflow=hidden;" vertex="1" parent="h9LaXiWzkKwQNLDJP15n-11">
          <mxGeometry x="30" width="90" height="30" as="geometry" />
        </mxCell>
        <mxCell id="h9LaXiWzkKwQNLDJP15n-42" style="shape=partialRectangle;connectable=0;fillColor=none;top=0;left=0;bottom=0;right=0;align=left;spacingLeft=6;overflow=hidden;" vertex="1" parent="h9LaXiWzkKwQNLDJP15n-11">
          <mxGeometry x="120" width="130" height="30" as="geometry" />
        </mxCell>
        <mxCell id="h9LaXiWzkKwQNLDJP15n-142" style="shape=partialRectangle;collapsible=0;dropTarget=0;pointerEvents=0;fillColor=none;top=0;left=0;bottom=0;right=0;points=[[0,0.5],[1,0.5]];portConstraint=eastwest;" vertex="1" parent="h9LaXiWzkKwQNLDJP15n-1">
          <mxGeometry y="210" width="250" height="30" as="geometry" />
        </mxCell>
        <mxCell id="h9LaXiWzkKwQNLDJP15n-143" style="shape=partialRectangle;connectable=0;fillColor=none;top=0;left=0;bottom=0;right=0;editable=1;overflow=hidden;" vertex="1" parent="h9LaXiWzkKwQNLDJP15n-142">
          <mxGeometry width="30" height="30" as="geometry" />
        </mxCell>
        <mxCell id="h9LaXiWzkKwQNLDJP15n-144" value="roles" style="shape=partialRectangle;connectable=0;fillColor=none;top=0;left=0;bottom=0;right=0;align=left;spacingLeft=6;overflow=hidden;" vertex="1" parent="h9LaXiWzkKwQNLDJP15n-142">
          <mxGeometry x="30" width="90" height="30" as="geometry" />
        </mxCell>
        <mxCell id="h9LaXiWzkKwQNLDJP15n-145" value="Participant, &#xa;Admin, Superadmin" style="shape=partialRectangle;connectable=0;fillColor=none;top=0;left=0;bottom=0;right=0;align=left;spacingLeft=6;overflow=hidden;verticalAlign=middle;" vertex="1" parent="h9LaXiWzkKwQNLDJP15n-142">
          <mxGeometry x="120" width="130" height="30" as="geometry" />
        </mxCell>
        <mxCell id="h9LaXiWzkKwQNLDJP15n-17" style="shape=partialRectangle;collapsible=0;dropTarget=0;pointerEvents=0;fillColor=none;top=0;left=0;bottom=0;right=0;points=[[0,0.5],[1,0.5]];portConstraint=eastwest;" vertex="1" parent="h9LaXiWzkKwQNLDJP15n-1">
          <mxGeometry y="240" width="250" height="30" as="geometry" />
        </mxCell>
        <mxCell id="h9LaXiWzkKwQNLDJP15n-18" style="shape=partialRectangle;connectable=0;fillColor=none;top=0;left=0;bottom=0;right=0;editable=1;overflow=hidden;" vertex="1" parent="h9LaXiWzkKwQNLDJP15n-17">
          <mxGeometry width="30" height="30" as="geometry" />
        </mxCell>
        <mxCell id="h9LaXiWzkKwQNLDJP15n-19" value="created_at" style="shape=partialRectangle;connectable=0;fillColor=none;top=0;left=0;bottom=0;right=0;align=left;spacingLeft=6;overflow=hidden;" vertex="1" parent="h9LaXiWzkKwQNLDJP15n-17">
          <mxGeometry x="30" width="90" height="30" as="geometry" />
        </mxCell>
        <mxCell id="h9LaXiWzkKwQNLDJP15n-43" style="shape=partialRectangle;connectable=0;fillColor=none;top=0;left=0;bottom=0;right=0;align=left;spacingLeft=6;overflow=hidden;" vertex="1" parent="h9LaXiWzkKwQNLDJP15n-17">
          <mxGeometry x="120" width="130" height="30" as="geometry" />
        </mxCell>
        <mxCell id="h9LaXiWzkKwQNLDJP15n-14" style="shape=partialRectangle;collapsible=0;dropTarget=0;pointerEvents=0;fillColor=none;top=0;left=0;bottom=0;right=0;points=[[0,0.5],[1,0.5]];portConstraint=eastwest;" vertex="1" parent="h9LaXiWzkKwQNLDJP15n-1">
          <mxGeometry y="270" width="250" height="30" as="geometry" />
        </mxCell>
        <mxCell id="h9LaXiWzkKwQNLDJP15n-15" style="shape=partialRectangle;connectable=0;fillColor=none;top=0;left=0;bottom=0;right=0;editable=1;overflow=hidden;" vertex="1" parent="h9LaXiWzkKwQNLDJP15n-14">
          <mxGeometry width="30" height="30" as="geometry" />
        </mxCell>
        <mxCell id="h9LaXiWzkKwQNLDJP15n-16" value="updated_at" style="shape=partialRectangle;connectable=0;fillColor=none;top=0;left=0;bottom=0;right=0;align=left;spacingLeft=6;overflow=hidden;" vertex="1" parent="h9LaXiWzkKwQNLDJP15n-14">
          <mxGeometry x="30" width="90" height="30" as="geometry" />
        </mxCell>
        <mxCell id="h9LaXiWzkKwQNLDJP15n-44" style="shape=partialRectangle;connectable=0;fillColor=none;top=0;left=0;bottom=0;right=0;align=left;spacingLeft=6;overflow=hidden;" vertex="1" parent="h9LaXiWzkKwQNLDJP15n-14">
          <mxGeometry x="120" width="130" height="30" as="geometry" />
        </mxCell>
        <mxCell id="h9LaXiWzkKwQNLDJP15n-45" value="leaders" style="shape=table;startSize=30;container=1;collapsible=1;childLayout=tableLayout;fixedRows=1;rowLines=0;fontStyle=1;align=center;resizeLast=1;" vertex="1" parent="1">
          <mxGeometry x="310" y="125" width="230" height="340" as="geometry" />
        </mxCell>
        <mxCell id="h9LaXiWzkKwQNLDJP15n-46" value="" style="shape=partialRectangle;collapsible=0;dropTarget=0;pointerEvents=0;fillColor=none;top=0;left=0;bottom=1;right=0;points=[[0,0.5],[1,0.5]];portConstraint=eastwest;" vertex="1" parent="h9LaXiWzkKwQNLDJP15n-45">
          <mxGeometry y="30" width="230" height="30" as="geometry" />
        </mxCell>
        <mxCell id="h9LaXiWzkKwQNLDJP15n-47" value="PK" style="shape=partialRectangle;connectable=0;fillColor=none;top=0;left=0;bottom=0;right=0;fontStyle=1;overflow=hidden;" vertex="1" parent="h9LaXiWzkKwQNLDJP15n-46">
          <mxGeometry width="30" height="30" as="geometry" />
        </mxCell>
        <mxCell id="h9LaXiWzkKwQNLDJP15n-48" value="id" style="shape=partialRectangle;connectable=0;fillColor=none;top=0;left=0;bottom=0;right=0;align=left;spacingLeft=6;fontStyle=5;overflow=hidden;" vertex="1" parent="h9LaXiWzkKwQNLDJP15n-46">
          <mxGeometry x="30" width="99.99999999999989" height="30" as="geometry" />
        </mxCell>
        <mxCell id="h9LaXiWzkKwQNLDJP15n-49" value="unique" style="shape=partialRectangle;connectable=0;fillColor=none;top=0;left=0;bottom=0;right=0;align=left;spacingLeft=6;fontStyle=5;overflow=hidden;" vertex="1" parent="h9LaXiWzkKwQNLDJP15n-46">
          <mxGeometry x="129.9999999999999" width="100.00000000000011" height="30" as="geometry" />
        </mxCell>
        <mxCell id="h9LaXiWzkKwQNLDJP15n-50" value="" style="shape=partialRectangle;collapsible=0;dropTarget=0;pointerEvents=0;fillColor=none;top=0;left=0;bottom=0;right=0;points=[[0,0.5],[1,0.5]];portConstraint=eastwest;" vertex="1" parent="h9LaXiWzkKwQNLDJP15n-45">
          <mxGeometry y="60" width="230" height="30" as="geometry" />
        </mxCell>
        <mxCell id="h9LaXiWzkKwQNLDJP15n-51" value="FK" style="shape=partialRectangle;connectable=0;fillColor=none;top=0;left=0;bottom=0;right=0;editable=1;overflow=hidden;" vertex="1" parent="h9LaXiWzkKwQNLDJP15n-50">
          <mxGeometry width="30" height="30" as="geometry" />
        </mxCell>
        <mxCell id="h9LaXiWzkKwQNLDJP15n-52" value="user_id" style="shape=partialRectangle;connectable=0;fillColor=none;top=0;left=0;bottom=0;right=0;align=left;spacingLeft=6;overflow=hidden;" vertex="1" parent="h9LaXiWzkKwQNLDJP15n-50">
          <mxGeometry x="30" width="99.99999999999989" height="30" as="geometry" />
        </mxCell>
        <mxCell id="h9LaXiWzkKwQNLDJP15n-53" style="shape=partialRectangle;connectable=0;fillColor=none;top=0;left=0;bottom=0;right=0;align=left;spacingLeft=6;overflow=hidden;" vertex="1" parent="h9LaXiWzkKwQNLDJP15n-50">
          <mxGeometry x="129.9999999999999" width="100.00000000000011" height="30" as="geometry" />
        </mxCell>
        <mxCell id="h9LaXiWzkKwQNLDJP15n-78" style="shape=partialRectangle;collapsible=0;dropTarget=0;pointerEvents=0;fillColor=none;top=0;left=0;bottom=0;right=0;points=[[0,0.5],[1,0.5]];portConstraint=eastwest;" vertex="1" parent="h9LaXiWzkKwQNLDJP15n-45">
          <mxGeometry y="90" width="230" height="30" as="geometry" />
        </mxCell>
        <mxCell id="h9LaXiWzkKwQNLDJP15n-79" style="shape=partialRectangle;connectable=0;fillColor=none;top=0;left=0;bottom=0;right=0;editable=1;overflow=hidden;" vertex="1" parent="h9LaXiWzkKwQNLDJP15n-78">
          <mxGeometry width="30" height="30" as="geometry" />
        </mxCell>
        <mxCell id="h9LaXiWzkKwQNLDJP15n-80" value="student_number" style="shape=partialRectangle;connectable=0;fillColor=none;top=0;left=0;bottom=0;right=0;align=left;spacingLeft=6;overflow=hidden;" vertex="1" parent="h9LaXiWzkKwQNLDJP15n-78">
          <mxGeometry x="30" width="99.99999999999989" height="30" as="geometry" />
        </mxCell>
        <mxCell id="h9LaXiWzkKwQNLDJP15n-81" style="shape=partialRectangle;connectable=0;fillColor=none;top=0;left=0;bottom=0;right=0;align=left;spacingLeft=6;overflow=hidden;" vertex="1" parent="h9LaXiWzkKwQNLDJP15n-78">
          <mxGeometry x="129.9999999999999" width="100.00000000000011" height="30" as="geometry" />
        </mxCell>
        <mxCell id="h9LaXiWzkKwQNLDJP15n-54" value="" style="shape=partialRectangle;collapsible=0;dropTarget=0;pointerEvents=0;fillColor=none;top=0;left=0;bottom=0;right=0;points=[[0,0.5],[1,0.5]];portConstraint=eastwest;" vertex="1" parent="h9LaXiWzkKwQNLDJP15n-45">
          <mxGeometry y="120" width="230" height="30" as="geometry" />
        </mxCell>
        <mxCell id="h9LaXiWzkKwQNLDJP15n-55" value="" style="shape=partialRectangle;connectable=0;fillColor=none;top=0;left=0;bottom=0;right=0;editable=1;overflow=hidden;" vertex="1" parent="h9LaXiWzkKwQNLDJP15n-54">
          <mxGeometry width="30" height="30" as="geometry" />
        </mxCell>
        <mxCell id="h9LaXiWzkKwQNLDJP15n-56" value="place_birth" style="shape=partialRectangle;connectable=0;fillColor=none;top=0;left=0;bottom=0;right=0;align=left;spacingLeft=6;overflow=hidden;" vertex="1" parent="h9LaXiWzkKwQNLDJP15n-54">
          <mxGeometry x="30" width="99.99999999999989" height="30" as="geometry" />
        </mxCell>
        <mxCell id="h9LaXiWzkKwQNLDJP15n-57" value="" style="shape=partialRectangle;connectable=0;fillColor=none;top=0;left=0;bottom=0;right=0;align=left;spacingLeft=6;overflow=hidden;" vertex="1" parent="h9LaXiWzkKwQNLDJP15n-54">
          <mxGeometry x="129.9999999999999" width="100.00000000000011" height="30" as="geometry" />
        </mxCell>
        <mxCell id="h9LaXiWzkKwQNLDJP15n-58" value="" style="shape=partialRectangle;collapsible=0;dropTarget=0;pointerEvents=0;fillColor=none;top=0;left=0;bottom=0;right=0;points=[[0,0.5],[1,0.5]];portConstraint=eastwest;" vertex="1" parent="h9LaXiWzkKwQNLDJP15n-45">
          <mxGeometry y="150" width="230" height="30" as="geometry" />
        </mxCell>
        <mxCell id="h9LaXiWzkKwQNLDJP15n-59" value="" style="shape=partialRectangle;connectable=0;fillColor=none;top=0;left=0;bottom=0;right=0;editable=1;overflow=hidden;" vertex="1" parent="h9LaXiWzkKwQNLDJP15n-58">
          <mxGeometry width="30" height="30" as="geometry" />
        </mxCell>
        <mxCell id="h9LaXiWzkKwQNLDJP15n-60" value="date_birth" style="shape=partialRectangle;connectable=0;fillColor=none;top=0;left=0;bottom=0;right=0;align=left;spacingLeft=6;overflow=hidden;" vertex="1" parent="h9LaXiWzkKwQNLDJP15n-58">
          <mxGeometry x="30" width="99.99999999999989" height="30" as="geometry" />
        </mxCell>
        <mxCell id="h9LaXiWzkKwQNLDJP15n-61" style="shape=partialRectangle;connectable=0;fillColor=none;top=0;left=0;bottom=0;right=0;align=left;spacingLeft=6;overflow=hidden;" vertex="1" parent="h9LaXiWzkKwQNLDJP15n-58">
          <mxGeometry x="129.9999999999999" width="100.00000000000011" height="30" as="geometry" />
        </mxCell>
        <mxCell id="h9LaXiWzkKwQNLDJP15n-62" style="shape=partialRectangle;collapsible=0;dropTarget=0;pointerEvents=0;fillColor=none;top=0;left=0;bottom=0;right=0;points=[[0,0.5],[1,0.5]];portConstraint=eastwest;" vertex="1" parent="h9LaXiWzkKwQNLDJP15n-45">
          <mxGeometry y="180" width="230" height="30" as="geometry" />
        </mxCell>
        <mxCell id="h9LaXiWzkKwQNLDJP15n-63" style="shape=partialRectangle;connectable=0;fillColor=none;top=0;left=0;bottom=0;right=0;editable=1;overflow=hidden;" vertex="1" parent="h9LaXiWzkKwQNLDJP15n-62">
          <mxGeometry width="30" height="30" as="geometry" />
        </mxCell>
        <mxCell id="h9LaXiWzkKwQNLDJP15n-64" value="address" style="shape=partialRectangle;connectable=0;fillColor=none;top=0;left=0;bottom=0;right=0;align=left;spacingLeft=6;overflow=hidden;" vertex="1" parent="h9LaXiWzkKwQNLDJP15n-62">
          <mxGeometry x="30" width="99.99999999999989" height="30" as="geometry" />
        </mxCell>
        <mxCell id="h9LaXiWzkKwQNLDJP15n-65" style="shape=partialRectangle;connectable=0;fillColor=none;top=0;left=0;bottom=0;right=0;align=left;spacingLeft=6;overflow=hidden;" vertex="1" parent="h9LaXiWzkKwQNLDJP15n-62">
          <mxGeometry x="129.9999999999999" width="100.00000000000011" height="30" as="geometry" />
        </mxCell>
        <mxCell id="h9LaXiWzkKwQNLDJP15n-66" style="shape=partialRectangle;collapsible=0;dropTarget=0;pointerEvents=0;fillColor=none;top=0;left=0;bottom=0;right=0;points=[[0,0.5],[1,0.5]];portConstraint=eastwest;" vertex="1" parent="h9LaXiWzkKwQNLDJP15n-45">
          <mxGeometry y="210" width="230" height="30" as="geometry" />
        </mxCell>
        <mxCell id="h9LaXiWzkKwQNLDJP15n-67" style="shape=partialRectangle;connectable=0;fillColor=none;top=0;left=0;bottom=0;right=0;editable=1;overflow=hidden;" vertex="1" parent="h9LaXiWzkKwQNLDJP15n-66">
          <mxGeometry width="30" height="30" as="geometry" />
        </mxCell>
        <mxCell id="h9LaXiWzkKwQNLDJP15n-68" value="phone" style="shape=partialRectangle;connectable=0;fillColor=none;top=0;left=0;bottom=0;right=0;align=left;spacingLeft=6;overflow=hidden;" vertex="1" parent="h9LaXiWzkKwQNLDJP15n-66">
          <mxGeometry x="30" width="99.99999999999989" height="30" as="geometry" />
        </mxCell>
        <mxCell id="h9LaXiWzkKwQNLDJP15n-69" style="shape=partialRectangle;connectable=0;fillColor=none;top=0;left=0;bottom=0;right=0;align=left;spacingLeft=6;overflow=hidden;" vertex="1" parent="h9LaXiWzkKwQNLDJP15n-66">
          <mxGeometry x="129.9999999999999" width="100.00000000000011" height="30" as="geometry" />
        </mxCell>
        <mxCell id="h9LaXiWzkKwQNLDJP15n-122" style="shape=partialRectangle;collapsible=0;dropTarget=0;pointerEvents=0;fillColor=none;top=0;left=0;bottom=0;right=0;points=[[0,0.5],[1,0.5]];portConstraint=eastwest;" vertex="1" parent="h9LaXiWzkKwQNLDJP15n-45">
          <mxGeometry y="240" width="230" height="30" as="geometry" />
        </mxCell>
        <mxCell id="h9LaXiWzkKwQNLDJP15n-123" style="shape=partialRectangle;connectable=0;fillColor=none;top=0;left=0;bottom=0;right=0;editable=1;overflow=hidden;" vertex="1" parent="h9LaXiWzkKwQNLDJP15n-122">
          <mxGeometry width="30" height="30" as="geometry" />
        </mxCell>
        <mxCell id="h9LaXiWzkKwQNLDJP15n-124" value="photo    " style="shape=partialRectangle;connectable=0;fillColor=none;top=0;left=0;bottom=0;right=0;align=left;spacingLeft=6;overflow=hidden;" vertex="1" parent="h9LaXiWzkKwQNLDJP15n-122">
          <mxGeometry x="30" width="99.99999999999989" height="30" as="geometry" />
        </mxCell>
        <mxCell id="h9LaXiWzkKwQNLDJP15n-125" style="shape=partialRectangle;connectable=0;fillColor=none;top=0;left=0;bottom=0;right=0;align=left;spacingLeft=6;overflow=hidden;" vertex="1" parent="h9LaXiWzkKwQNLDJP15n-122">
          <mxGeometry x="129.9999999999999" width="100.00000000000011" height="30" as="geometry" />
        </mxCell>
        <mxCell id="h9LaXiWzkKwQNLDJP15n-118" style="shape=partialRectangle;collapsible=0;dropTarget=0;pointerEvents=0;fillColor=none;top=0;left=0;bottom=0;right=0;points=[[0,0.5],[1,0.5]];portConstraint=eastwest;" vertex="1" parent="h9LaXiWzkKwQNLDJP15n-45">
          <mxGeometry y="270" width="230" height="30" as="geometry" />
        </mxCell>
        <mxCell id="h9LaXiWzkKwQNLDJP15n-119" style="shape=partialRectangle;connectable=0;fillColor=none;top=0;left=0;bottom=0;right=0;editable=1;overflow=hidden;" vertex="1" parent="h9LaXiWzkKwQNLDJP15n-118">
          <mxGeometry width="30" height="30" as="geometry" />
        </mxCell>
        <mxCell id="h9LaXiWzkKwQNLDJP15n-120" value="id_card" style="shape=partialRectangle;connectable=0;fillColor=none;top=0;left=0;bottom=0;right=0;align=left;spacingLeft=6;overflow=hidden;" vertex="1" parent="h9LaXiWzkKwQNLDJP15n-118">
          <mxGeometry x="30" width="99.99999999999989" height="30" as="geometry" />
        </mxCell>
        <mxCell id="h9LaXiWzkKwQNLDJP15n-121" style="shape=partialRectangle;connectable=0;fillColor=none;top=0;left=0;bottom=0;right=0;align=left;spacingLeft=6;overflow=hidden;" vertex="1" parent="h9LaXiWzkKwQNLDJP15n-118">
          <mxGeometry x="129.9999999999999" width="100.00000000000011" height="30" as="geometry" />
        </mxCell>
        <mxCell id="h9LaXiWzkKwQNLDJP15n-134" style="shape=partialRectangle;collapsible=0;dropTarget=0;pointerEvents=0;fillColor=none;top=0;left=0;bottom=0;right=0;points=[[0,0.5],[1,0.5]];portConstraint=eastwest;" vertex="1" parent="h9LaXiWzkKwQNLDJP15n-45">
          <mxGeometry y="300" width="230" height="30" as="geometry" />
        </mxCell>
        <mxCell id="h9LaXiWzkKwQNLDJP15n-135" style="shape=partialRectangle;connectable=0;fillColor=none;top=0;left=0;bottom=0;right=0;editable=1;overflow=hidden;" vertex="1" parent="h9LaXiWzkKwQNLDJP15n-134">
          <mxGeometry width="30" height="30" as="geometry" />
        </mxCell>
        <mxCell id="h9LaXiWzkKwQNLDJP15n-136" value="deleted_at" style="shape=partialRectangle;connectable=0;fillColor=none;top=0;left=0;bottom=0;right=0;align=left;spacingLeft=6;overflow=hidden;" vertex="1" parent="h9LaXiWzkKwQNLDJP15n-134">
          <mxGeometry x="30" width="99.99999999999989" height="30" as="geometry" />
        </mxCell>
        <mxCell id="h9LaXiWzkKwQNLDJP15n-137" style="shape=partialRectangle;connectable=0;fillColor=none;top=0;left=0;bottom=0;right=0;align=left;spacingLeft=6;overflow=hidden;" vertex="1" parent="h9LaXiWzkKwQNLDJP15n-134">
          <mxGeometry x="129.9999999999999" width="100.00000000000011" height="30" as="geometry" />
        </mxCell>
        <mxCell id="h9LaXiWzkKwQNLDJP15n-82" value="members" style="shape=table;startSize=30;container=1;collapsible=1;childLayout=tableLayout;fixedRows=1;rowLines=0;fontStyle=1;align=center;resizeLast=1;" vertex="1" parent="1">
          <mxGeometry x="580" y="140" width="230" height="310" as="geometry" />
        </mxCell>
        <mxCell id="h9LaXiWzkKwQNLDJP15n-83" value="" style="shape=partialRectangle;collapsible=0;dropTarget=0;pointerEvents=0;fillColor=none;top=0;left=0;bottom=1;right=0;points=[[0,0.5],[1,0.5]];portConstraint=eastwest;" vertex="1" parent="h9LaXiWzkKwQNLDJP15n-82">
          <mxGeometry y="30" width="230" height="30" as="geometry" />
        </mxCell>
        <mxCell id="h9LaXiWzkKwQNLDJP15n-84" value="PK" style="shape=partialRectangle;connectable=0;fillColor=none;top=0;left=0;bottom=0;right=0;fontStyle=1;overflow=hidden;" vertex="1" parent="h9LaXiWzkKwQNLDJP15n-83">
          <mxGeometry width="30" height="30" as="geometry" />
        </mxCell>
        <mxCell id="h9LaXiWzkKwQNLDJP15n-85" value="id" style="shape=partialRectangle;connectable=0;fillColor=none;top=0;left=0;bottom=0;right=0;align=left;spacingLeft=6;fontStyle=5;overflow=hidden;" vertex="1" parent="h9LaXiWzkKwQNLDJP15n-83">
          <mxGeometry x="30" width="99.99999999999989" height="30" as="geometry" />
        </mxCell>
        <mxCell id="h9LaXiWzkKwQNLDJP15n-86" value="unique" style="shape=partialRectangle;connectable=0;fillColor=none;top=0;left=0;bottom=0;right=0;align=left;spacingLeft=6;fontStyle=5;overflow=hidden;" vertex="1" parent="h9LaXiWzkKwQNLDJP15n-83">
          <mxGeometry x="129.9999999999999" width="100.00000000000011" height="30" as="geometry" />
        </mxCell>
        <mxCell id="h9LaXiWzkKwQNLDJP15n-87" value="" style="shape=partialRectangle;collapsible=0;dropTarget=0;pointerEvents=0;fillColor=none;top=0;left=0;bottom=0;right=0;points=[[0,0.5],[1,0.5]];portConstraint=eastwest;" vertex="1" parent="h9LaXiWzkKwQNLDJP15n-82">
          <mxGeometry y="60" width="230" height="30" as="geometry" />
        </mxCell>
        <mxCell id="h9LaXiWzkKwQNLDJP15n-88" value="FK" style="shape=partialRectangle;connectable=0;fillColor=none;top=0;left=0;bottom=0;right=0;editable=1;overflow=hidden;" vertex="1" parent="h9LaXiWzkKwQNLDJP15n-87">
          <mxGeometry width="30" height="30" as="geometry" />
        </mxCell>
        <mxCell id="h9LaXiWzkKwQNLDJP15n-89" value="user_id" style="shape=partialRectangle;connectable=0;fillColor=none;top=0;left=0;bottom=0;right=0;align=left;spacingLeft=6;overflow=hidden;" vertex="1" parent="h9LaXiWzkKwQNLDJP15n-87">
          <mxGeometry x="30" width="99.99999999999989" height="30" as="geometry" />
        </mxCell>
        <mxCell id="h9LaXiWzkKwQNLDJP15n-90" style="shape=partialRectangle;connectable=0;fillColor=none;top=0;left=0;bottom=0;right=0;align=left;spacingLeft=6;overflow=hidden;" vertex="1" parent="h9LaXiWzkKwQNLDJP15n-87">
          <mxGeometry x="129.9999999999999" width="100.00000000000011" height="30" as="geometry" />
        </mxCell>
        <mxCell id="h9LaXiWzkKwQNLDJP15n-91" style="shape=partialRectangle;collapsible=0;dropTarget=0;pointerEvents=0;fillColor=none;top=0;left=0;bottom=0;right=0;points=[[0,0.5],[1,0.5]];portConstraint=eastwest;" vertex="1" parent="h9LaXiWzkKwQNLDJP15n-82">
          <mxGeometry y="90" width="230" height="30" as="geometry" />
        </mxCell>
        <mxCell id="h9LaXiWzkKwQNLDJP15n-92" style="shape=partialRectangle;connectable=0;fillColor=none;top=0;left=0;bottom=0;right=0;editable=1;overflow=hidden;" vertex="1" parent="h9LaXiWzkKwQNLDJP15n-91">
          <mxGeometry width="30" height="30" as="geometry" />
        </mxCell>
        <mxCell id="h9LaXiWzkKwQNLDJP15n-93" value="name" style="shape=partialRectangle;connectable=0;fillColor=none;top=0;left=0;bottom=0;right=0;align=left;spacingLeft=6;overflow=hidden;" vertex="1" parent="h9LaXiWzkKwQNLDJP15n-91">
          <mxGeometry x="30" width="99.99999999999989" height="30" as="geometry" />
        </mxCell>
        <mxCell id="h9LaXiWzkKwQNLDJP15n-94" style="shape=partialRectangle;connectable=0;fillColor=none;top=0;left=0;bottom=0;right=0;align=left;spacingLeft=6;overflow=hidden;" vertex="1" parent="h9LaXiWzkKwQNLDJP15n-91">
          <mxGeometry x="129.9999999999999" width="100.00000000000011" height="30" as="geometry" />
        </mxCell>
        <mxCell id="h9LaXiWzkKwQNLDJP15n-95" style="shape=partialRectangle;collapsible=0;dropTarget=0;pointerEvents=0;fillColor=none;top=0;left=0;bottom=0;right=0;points=[[0,0.5],[1,0.5]];portConstraint=eastwest;" vertex="1" parent="h9LaXiWzkKwQNLDJP15n-82">
          <mxGeometry y="120" width="230" height="30" as="geometry" />
        </mxCell>
        <mxCell id="h9LaXiWzkKwQNLDJP15n-96" style="shape=partialRectangle;connectable=0;fillColor=none;top=0;left=0;bottom=0;right=0;editable=1;overflow=hidden;" vertex="1" parent="h9LaXiWzkKwQNLDJP15n-95">
          <mxGeometry width="30" height="30" as="geometry" />
        </mxCell>
        <mxCell id="h9LaXiWzkKwQNLDJP15n-97" value="student_number" style="shape=partialRectangle;connectable=0;fillColor=none;top=0;left=0;bottom=0;right=0;align=left;spacingLeft=6;overflow=hidden;" vertex="1" parent="h9LaXiWzkKwQNLDJP15n-95">
          <mxGeometry x="30" width="99.99999999999989" height="30" as="geometry" />
        </mxCell>
        <mxCell id="h9LaXiWzkKwQNLDJP15n-98" style="shape=partialRectangle;connectable=0;fillColor=none;top=0;left=0;bottom=0;right=0;align=left;spacingLeft=6;overflow=hidden;" vertex="1" parent="h9LaXiWzkKwQNLDJP15n-95">
          <mxGeometry x="129.9999999999999" width="100.00000000000011" height="30" as="geometry" />
        </mxCell>
        <mxCell id="h9LaXiWzkKwQNLDJP15n-99" value="" style="shape=partialRectangle;collapsible=0;dropTarget=0;pointerEvents=0;fillColor=none;top=0;left=0;bottom=0;right=0;points=[[0,0.5],[1,0.5]];portConstraint=eastwest;" vertex="1" parent="h9LaXiWzkKwQNLDJP15n-82">
          <mxGeometry y="150" width="230" height="30" as="geometry" />
        </mxCell>
        <mxCell id="h9LaXiWzkKwQNLDJP15n-100" value="" style="shape=partialRectangle;connectable=0;fillColor=none;top=0;left=0;bottom=0;right=0;editable=1;overflow=hidden;" vertex="1" parent="h9LaXiWzkKwQNLDJP15n-99">
          <mxGeometry width="30" height="30" as="geometry" />
        </mxCell>
        <mxCell id="h9LaXiWzkKwQNLDJP15n-101" value="place_birth" style="shape=partialRectangle;connectable=0;fillColor=none;top=0;left=0;bottom=0;right=0;align=left;spacingLeft=6;overflow=hidden;" vertex="1" parent="h9LaXiWzkKwQNLDJP15n-99">
          <mxGeometry x="30" width="99.99999999999989" height="30" as="geometry" />
        </mxCell>
        <mxCell id="h9LaXiWzkKwQNLDJP15n-102" value="" style="shape=partialRectangle;connectable=0;fillColor=none;top=0;left=0;bottom=0;right=0;align=left;spacingLeft=6;overflow=hidden;" vertex="1" parent="h9LaXiWzkKwQNLDJP15n-99">
          <mxGeometry x="129.9999999999999" width="100.00000000000011" height="30" as="geometry" />
        </mxCell>
        <mxCell id="h9LaXiWzkKwQNLDJP15n-103" value="" style="shape=partialRectangle;collapsible=0;dropTarget=0;pointerEvents=0;fillColor=none;top=0;left=0;bottom=0;right=0;points=[[0,0.5],[1,0.5]];portConstraint=eastwest;" vertex="1" parent="h9LaXiWzkKwQNLDJP15n-82">
          <mxGeometry y="180" width="230" height="30" as="geometry" />
        </mxCell>
        <mxCell id="h9LaXiWzkKwQNLDJP15n-104" value="" style="shape=partialRectangle;connectable=0;fillColor=none;top=0;left=0;bottom=0;right=0;editable=1;overflow=hidden;" vertex="1" parent="h9LaXiWzkKwQNLDJP15n-103">
          <mxGeometry width="30" height="30" as="geometry" />
        </mxCell>
        <mxCell id="h9LaXiWzkKwQNLDJP15n-105" value="date_birth" style="shape=partialRectangle;connectable=0;fillColor=none;top=0;left=0;bottom=0;right=0;align=left;spacingLeft=6;overflow=hidden;" vertex="1" parent="h9LaXiWzkKwQNLDJP15n-103">
          <mxGeometry x="30" width="99.99999999999989" height="30" as="geometry" />
        </mxCell>
        <mxCell id="h9LaXiWzkKwQNLDJP15n-106" style="shape=partialRectangle;connectable=0;fillColor=none;top=0;left=0;bottom=0;right=0;align=left;spacingLeft=6;overflow=hidden;" vertex="1" parent="h9LaXiWzkKwQNLDJP15n-103">
          <mxGeometry x="129.9999999999999" width="100.00000000000011" height="30" as="geometry" />
        </mxCell>
        <mxCell id="h9LaXiWzkKwQNLDJP15n-130" style="shape=partialRectangle;collapsible=0;dropTarget=0;pointerEvents=0;fillColor=none;top=0;left=0;bottom=0;right=0;points=[[0,0.5],[1,0.5]];portConstraint=eastwest;" vertex="1" parent="h9LaXiWzkKwQNLDJP15n-82">
          <mxGeometry y="210" width="230" height="30" as="geometry" />
        </mxCell>
        <mxCell id="h9LaXiWzkKwQNLDJP15n-131" style="shape=partialRectangle;connectable=0;fillColor=none;top=0;left=0;bottom=0;right=0;editable=1;overflow=hidden;" vertex="1" parent="h9LaXiWzkKwQNLDJP15n-130">
          <mxGeometry width="30" height="30" as="geometry" />
        </mxCell>
        <mxCell id="h9LaXiWzkKwQNLDJP15n-132" value="photo" style="shape=partialRectangle;connectable=0;fillColor=none;top=0;left=0;bottom=0;right=0;align=left;spacingLeft=6;overflow=hidden;" vertex="1" parent="h9LaXiWzkKwQNLDJP15n-130">
          <mxGeometry x="30" width="99.99999999999989" height="30" as="geometry" />
        </mxCell>
        <mxCell id="h9LaXiWzkKwQNLDJP15n-133" style="shape=partialRectangle;connectable=0;fillColor=none;top=0;left=0;bottom=0;right=0;align=left;spacingLeft=6;overflow=hidden;" vertex="1" parent="h9LaXiWzkKwQNLDJP15n-130">
          <mxGeometry x="129.9999999999999" width="100.00000000000011" height="30" as="geometry" />
        </mxCell>
        <mxCell id="h9LaXiWzkKwQNLDJP15n-126" style="shape=partialRectangle;collapsible=0;dropTarget=0;pointerEvents=0;fillColor=none;top=0;left=0;bottom=0;right=0;points=[[0,0.5],[1,0.5]];portConstraint=eastwest;" vertex="1" parent="h9LaXiWzkKwQNLDJP15n-82">
          <mxGeometry y="240" width="230" height="30" as="geometry" />
        </mxCell>
        <mxCell id="h9LaXiWzkKwQNLDJP15n-127" style="shape=partialRectangle;connectable=0;fillColor=none;top=0;left=0;bottom=0;right=0;editable=1;overflow=hidden;" vertex="1" parent="h9LaXiWzkKwQNLDJP15n-126">
          <mxGeometry width="30" height="30" as="geometry" />
        </mxCell>
        <mxCell id="h9LaXiWzkKwQNLDJP15n-128" value="id_card" style="shape=partialRectangle;connectable=0;fillColor=none;top=0;left=0;bottom=0;right=0;align=left;spacingLeft=6;overflow=hidden;" vertex="1" parent="h9LaXiWzkKwQNLDJP15n-126">
          <mxGeometry x="30" width="99.99999999999989" height="30" as="geometry" />
        </mxCell>
        <mxCell id="h9LaXiWzkKwQNLDJP15n-129" style="shape=partialRectangle;connectable=0;fillColor=none;top=0;left=0;bottom=0;right=0;align=left;spacingLeft=6;overflow=hidden;" vertex="1" parent="h9LaXiWzkKwQNLDJP15n-126">
          <mxGeometry x="129.9999999999999" width="100.00000000000011" height="30" as="geometry" />
        </mxCell>
        <mxCell id="h9LaXiWzkKwQNLDJP15n-138" style="shape=partialRectangle;collapsible=0;dropTarget=0;pointerEvents=0;fillColor=none;top=0;left=0;bottom=0;right=0;points=[[0,0.5],[1,0.5]];portConstraint=eastwest;" vertex="1" parent="h9LaXiWzkKwQNLDJP15n-82">
          <mxGeometry y="270" width="230" height="30" as="geometry" />
        </mxCell>
        <mxCell id="h9LaXiWzkKwQNLDJP15n-139" style="shape=partialRectangle;connectable=0;fillColor=none;top=0;left=0;bottom=0;right=0;editable=1;overflow=hidden;" vertex="1" parent="h9LaXiWzkKwQNLDJP15n-138">
          <mxGeometry width="30" height="30" as="geometry" />
        </mxCell>
        <mxCell id="h9LaXiWzkKwQNLDJP15n-140" value="deleted_at" style="shape=partialRectangle;connectable=0;fillColor=none;top=0;left=0;bottom=0;right=0;align=left;spacingLeft=6;overflow=hidden;" vertex="1" parent="h9LaXiWzkKwQNLDJP15n-138">
          <mxGeometry x="30" width="99.99999999999989" height="30" as="geometry" />
        </mxCell>
        <mxCell id="h9LaXiWzkKwQNLDJP15n-141" style="shape=partialRectangle;connectable=0;fillColor=none;top=0;left=0;bottom=0;right=0;align=left;spacingLeft=6;overflow=hidden;" vertex="1" parent="h9LaXiWzkKwQNLDJP15n-138">
          <mxGeometry x="129.9999999999999" width="100.00000000000011" height="30" as="geometry" />
        </mxCell>
        <mxCell id="h9LaXiWzkKwQNLDJP15n-115" value="" style="edgeStyle=entityRelationEdgeStyle;fontSize=12;html=1;endArrow=ERmandOne;startArrow=ERmandOne;" edge="1" parent="1" source="h9LaXiWzkKwQNLDJP15n-1" target="h9LaXiWzkKwQNLDJP15n-45">
          <mxGeometry width="100" height="100" relative="1" as="geometry">
            <mxPoint x="370" y="290" as="sourcePoint" />
            <mxPoint x="470" y="190" as="targetPoint" />
          </mxGeometry>
        </mxCell>
        <mxCell id="h9LaXiWzkKwQNLDJP15n-117" value="" style="edgeStyle=entityRelationEdgeStyle;fontSize=12;html=1;endArrow=ERoneToMany;startArrow=ERmandOne;" edge="1" parent="1" source="h9LaXiWzkKwQNLDJP15n-45" target="h9LaXiWzkKwQNLDJP15n-82">
          <mxGeometry width="100" height="100" relative="1" as="geometry">
            <mxPoint x="370" y="290" as="sourcePoint" />
            <mxPoint x="470" y="190" as="targetPoint" />
          </mxGeometry>
        </mxCell>
        <mxCell id="h9LaXiWzkKwQNLDJP15n-154" value="abstracts" style="shape=table;startSize=30;container=1;collapsible=1;childLayout=tableLayout;fixedRows=1;rowLines=0;fontStyle=1;align=center;resizeLast=1;" vertex="1" parent="1">
          <mxGeometry x="310" y="490" width="230" height="220" as="geometry" />
        </mxCell>
        <mxCell id="h9LaXiWzkKwQNLDJP15n-155" value="" style="shape=partialRectangle;collapsible=0;dropTarget=0;pointerEvents=0;fillColor=none;top=0;left=0;bottom=1;right=0;points=[[0,0.5],[1,0.5]];portConstraint=eastwest;" vertex="1" parent="h9LaXiWzkKwQNLDJP15n-154">
          <mxGeometry y="30" width="230" height="30" as="geometry" />
        </mxCell>
        <mxCell id="h9LaXiWzkKwQNLDJP15n-156" value="PK" style="shape=partialRectangle;connectable=0;fillColor=none;top=0;left=0;bottom=0;right=0;fontStyle=1;overflow=hidden;" vertex="1" parent="h9LaXiWzkKwQNLDJP15n-155">
          <mxGeometry width="30" height="30" as="geometry" />
        </mxCell>
        <mxCell id="h9LaXiWzkKwQNLDJP15n-157" value="id" style="shape=partialRectangle;connectable=0;fillColor=none;top=0;left=0;bottom=0;right=0;align=left;spacingLeft=6;fontStyle=5;overflow=hidden;" vertex="1" parent="h9LaXiWzkKwQNLDJP15n-155">
          <mxGeometry x="30" width="99.99999999999989" height="30" as="geometry" />
        </mxCell>
        <mxCell id="h9LaXiWzkKwQNLDJP15n-158" value="unique" style="shape=partialRectangle;connectable=0;fillColor=none;top=0;left=0;bottom=0;right=0;align=left;spacingLeft=6;fontStyle=5;overflow=hidden;" vertex="1" parent="h9LaXiWzkKwQNLDJP15n-155">
          <mxGeometry x="129.9999999999999" width="100.00000000000011" height="30" as="geometry" />
        </mxCell>
        <mxCell id="h9LaXiWzkKwQNLDJP15n-159" value="" style="shape=partialRectangle;collapsible=0;dropTarget=0;pointerEvents=0;fillColor=none;top=0;left=0;bottom=0;right=0;points=[[0,0.5],[1,0.5]];portConstraint=eastwest;" vertex="1" parent="h9LaXiWzkKwQNLDJP15n-154">
          <mxGeometry y="60" width="230" height="30" as="geometry" />
        </mxCell>
        <mxCell id="h9LaXiWzkKwQNLDJP15n-160" value="FK" style="shape=partialRectangle;connectable=0;fillColor=none;top=0;left=0;bottom=0;right=0;editable=1;overflow=hidden;" vertex="1" parent="h9LaXiWzkKwQNLDJP15n-159">
          <mxGeometry width="30" height="30" as="geometry" />
        </mxCell>
        <mxCell id="h9LaXiWzkKwQNLDJP15n-161" value="user_id" style="shape=partialRectangle;connectable=0;fillColor=none;top=0;left=0;bottom=0;right=0;align=left;spacingLeft=6;overflow=hidden;" vertex="1" parent="h9LaXiWzkKwQNLDJP15n-159">
          <mxGeometry x="30" width="99.99999999999989" height="30" as="geometry" />
        </mxCell>
        <mxCell id="h9LaXiWzkKwQNLDJP15n-162" style="shape=partialRectangle;connectable=0;fillColor=none;top=0;left=0;bottom=0;right=0;align=left;spacingLeft=6;overflow=hidden;" vertex="1" parent="h9LaXiWzkKwQNLDJP15n-159">
          <mxGeometry x="129.9999999999999" width="100.00000000000011" height="30" as="geometry" />
        </mxCell>
        <mxCell id="h9LaXiWzkKwQNLDJP15n-167" value="" style="shape=partialRectangle;collapsible=0;dropTarget=0;pointerEvents=0;fillColor=none;top=0;left=0;bottom=0;right=0;points=[[0,0.5],[1,0.5]];portConstraint=eastwest;" vertex="1" parent="h9LaXiWzkKwQNLDJP15n-154">
          <mxGeometry y="90" width="230" height="30" as="geometry" />
        </mxCell>
        <mxCell id="h9LaXiWzkKwQNLDJP15n-168" value="" style="shape=partialRectangle;connectable=0;fillColor=none;top=0;left=0;bottom=0;right=0;editable=1;overflow=hidden;" vertex="1" parent="h9LaXiWzkKwQNLDJP15n-167">
          <mxGeometry width="30" height="30" as="geometry" />
        </mxCell>
        <mxCell id="h9LaXiWzkKwQNLDJP15n-169" value="title" style="shape=partialRectangle;connectable=0;fillColor=none;top=0;left=0;bottom=0;right=0;align=left;spacingLeft=6;overflow=hidden;" vertex="1" parent="h9LaXiWzkKwQNLDJP15n-167">
          <mxGeometry x="30" width="99.99999999999989" height="30" as="geometry" />
        </mxCell>
        <mxCell id="h9LaXiWzkKwQNLDJP15n-170" value="" style="shape=partialRectangle;connectable=0;fillColor=none;top=0;left=0;bottom=0;right=0;align=left;spacingLeft=6;overflow=hidden;" vertex="1" parent="h9LaXiWzkKwQNLDJP15n-167">
          <mxGeometry x="129.9999999999999" width="100.00000000000011" height="30" as="geometry" />
        </mxCell>
        <mxCell id="h9LaXiWzkKwQNLDJP15n-171" value="" style="shape=partialRectangle;collapsible=0;dropTarget=0;pointerEvents=0;fillColor=none;top=0;left=0;bottom=0;right=0;points=[[0,0.5],[1,0.5]];portConstraint=eastwest;" vertex="1" parent="h9LaXiWzkKwQNLDJP15n-154">
          <mxGeometry y="120" width="230" height="30" as="geometry" />
        </mxCell>
        <mxCell id="h9LaXiWzkKwQNLDJP15n-172" value="" style="shape=partialRectangle;connectable=0;fillColor=none;top=0;left=0;bottom=0;right=0;editable=1;overflow=hidden;" vertex="1" parent="h9LaXiWzkKwQNLDJP15n-171">
          <mxGeometry width="30" height="30" as="geometry" />
        </mxCell>
        <mxCell id="h9LaXiWzkKwQNLDJP15n-173" value="filename" style="shape=partialRectangle;connectable=0;fillColor=none;top=0;left=0;bottom=0;right=0;align=left;spacingLeft=6;overflow=hidden;" vertex="1" parent="h9LaXiWzkKwQNLDJP15n-171">
          <mxGeometry x="30" width="99.99999999999989" height="30" as="geometry" />
        </mxCell>
        <mxCell id="h9LaXiWzkKwQNLDJP15n-174" style="shape=partialRectangle;connectable=0;fillColor=none;top=0;left=0;bottom=0;right=0;align=left;spacingLeft=6;overflow=hidden;" vertex="1" parent="h9LaXiWzkKwQNLDJP15n-171">
          <mxGeometry x="129.9999999999999" width="100.00000000000011" height="30" as="geometry" />
        </mxCell>
        <mxCell id="h9LaXiWzkKwQNLDJP15n-175" style="shape=partialRectangle;collapsible=0;dropTarget=0;pointerEvents=0;fillColor=none;top=0;left=0;bottom=0;right=0;points=[[0,0.5],[1,0.5]];portConstraint=eastwest;" vertex="1" parent="h9LaXiWzkKwQNLDJP15n-154">
          <mxGeometry y="150" width="230" height="30" as="geometry" />
        </mxCell>
        <mxCell id="h9LaXiWzkKwQNLDJP15n-176" style="shape=partialRectangle;connectable=0;fillColor=none;top=0;left=0;bottom=0;right=0;editable=1;overflow=hidden;" vertex="1" parent="h9LaXiWzkKwQNLDJP15n-175">
          <mxGeometry width="30" height="30" as="geometry" />
        </mxCell>
        <mxCell id="h9LaXiWzkKwQNLDJP15n-177" value="is_locked" style="shape=partialRectangle;connectable=0;fillColor=none;top=0;left=0;bottom=0;right=0;align=left;spacingLeft=6;overflow=hidden;" vertex="1" parent="h9LaXiWzkKwQNLDJP15n-175">
          <mxGeometry x="30" width="99.99999999999989" height="30" as="geometry" />
        </mxCell>
        <mxCell id="h9LaXiWzkKwQNLDJP15n-178" value="boolean,&#xa;default false" style="shape=partialRectangle;connectable=0;fillColor=none;top=0;left=0;bottom=0;right=0;align=left;spacingLeft=6;overflow=hidden;" vertex="1" parent="h9LaXiWzkKwQNLDJP15n-175">
          <mxGeometry x="129.9999999999999" width="100.00000000000011" height="30" as="geometry" />
        </mxCell>
        <mxCell id="h9LaXiWzkKwQNLDJP15n-191" style="shape=partialRectangle;collapsible=0;dropTarget=0;pointerEvents=0;fillColor=none;top=0;left=0;bottom=0;right=0;points=[[0,0.5],[1,0.5]];portConstraint=eastwest;" vertex="1" parent="h9LaXiWzkKwQNLDJP15n-154">
          <mxGeometry y="180" width="230" height="30" as="geometry" />
        </mxCell>
        <mxCell id="h9LaXiWzkKwQNLDJP15n-192" style="shape=partialRectangle;connectable=0;fillColor=none;top=0;left=0;bottom=0;right=0;editable=1;overflow=hidden;" vertex="1" parent="h9LaXiWzkKwQNLDJP15n-191">
          <mxGeometry width="30" height="30" as="geometry" />
        </mxCell>
        <mxCell id="h9LaXiWzkKwQNLDJP15n-193" value="deleted_at" style="shape=partialRectangle;connectable=0;fillColor=none;top=0;left=0;bottom=0;right=0;align=left;spacingLeft=6;overflow=hidden;" vertex="1" parent="h9LaXiWzkKwQNLDJP15n-191">
          <mxGeometry x="30" width="99.99999999999989" height="30" as="geometry" />
        </mxCell>
        <mxCell id="h9LaXiWzkKwQNLDJP15n-194" style="shape=partialRectangle;connectable=0;fillColor=none;top=0;left=0;bottom=0;right=0;align=left;spacingLeft=6;overflow=hidden;" vertex="1" parent="h9LaXiWzkKwQNLDJP15n-191">
          <mxGeometry x="129.9999999999999" width="100.00000000000011" height="30" as="geometry" />
        </mxCell>
        <mxCell id="h9LaXiWzkKwQNLDJP15n-195" value="papers" style="shape=table;startSize=30;container=1;collapsible=1;childLayout=tableLayout;fixedRows=1;rowLines=0;fontStyle=1;align=center;resizeLast=1;" vertex="1" parent="1">
          <mxGeometry x="850" y="490" width="230" height="220" as="geometry" />
        </mxCell>
        <mxCell id="h9LaXiWzkKwQNLDJP15n-196" value="" style="shape=partialRectangle;collapsible=0;dropTarget=0;pointerEvents=0;fillColor=none;top=0;left=0;bottom=1;right=0;points=[[0,0.5],[1,0.5]];portConstraint=eastwest;" vertex="1" parent="h9LaXiWzkKwQNLDJP15n-195">
          <mxGeometry y="30" width="230" height="30" as="geometry" />
        </mxCell>
        <mxCell id="h9LaXiWzkKwQNLDJP15n-197" value="PK" style="shape=partialRectangle;connectable=0;fillColor=none;top=0;left=0;bottom=0;right=0;fontStyle=1;overflow=hidden;" vertex="1" parent="h9LaXiWzkKwQNLDJP15n-196">
          <mxGeometry width="30" height="30" as="geometry" />
        </mxCell>
        <mxCell id="h9LaXiWzkKwQNLDJP15n-198" value="id" style="shape=partialRectangle;connectable=0;fillColor=none;top=0;left=0;bottom=0;right=0;align=left;spacingLeft=6;fontStyle=5;overflow=hidden;" vertex="1" parent="h9LaXiWzkKwQNLDJP15n-196">
          <mxGeometry x="30" width="99.99999999999989" height="30" as="geometry" />
        </mxCell>
        <mxCell id="h9LaXiWzkKwQNLDJP15n-199" value="unique" style="shape=partialRectangle;connectable=0;fillColor=none;top=0;left=0;bottom=0;right=0;align=left;spacingLeft=6;fontStyle=5;overflow=hidden;" vertex="1" parent="h9LaXiWzkKwQNLDJP15n-196">
          <mxGeometry x="129.9999999999999" width="100.00000000000011" height="30" as="geometry" />
        </mxCell>
        <mxCell id="h9LaXiWzkKwQNLDJP15n-200" value="" style="shape=partialRectangle;collapsible=0;dropTarget=0;pointerEvents=0;fillColor=none;top=0;left=0;bottom=0;right=0;points=[[0,0.5],[1,0.5]];portConstraint=eastwest;" vertex="1" parent="h9LaXiWzkKwQNLDJP15n-195">
          <mxGeometry y="60" width="230" height="30" as="geometry" />
        </mxCell>
        <mxCell id="h9LaXiWzkKwQNLDJP15n-201" value="FK" style="shape=partialRectangle;connectable=0;fillColor=none;top=0;left=0;bottom=0;right=0;editable=1;overflow=hidden;" vertex="1" parent="h9LaXiWzkKwQNLDJP15n-200">
          <mxGeometry width="30" height="30" as="geometry" />
        </mxCell>
        <mxCell id="h9LaXiWzkKwQNLDJP15n-202" value="user_id" style="shape=partialRectangle;connectable=0;fillColor=none;top=0;left=0;bottom=0;right=0;align=left;spacingLeft=6;overflow=hidden;" vertex="1" parent="h9LaXiWzkKwQNLDJP15n-200">
          <mxGeometry x="30" width="99.99999999999989" height="30" as="geometry" />
        </mxCell>
        <mxCell id="h9LaXiWzkKwQNLDJP15n-203" style="shape=partialRectangle;connectable=0;fillColor=none;top=0;left=0;bottom=0;right=0;align=left;spacingLeft=6;overflow=hidden;" vertex="1" parent="h9LaXiWzkKwQNLDJP15n-200">
          <mxGeometry x="129.9999999999999" width="100.00000000000011" height="30" as="geometry" />
        </mxCell>
        <mxCell id="h9LaXiWzkKwQNLDJP15n-204" value="" style="shape=partialRectangle;collapsible=0;dropTarget=0;pointerEvents=0;fillColor=none;top=0;left=0;bottom=0;right=0;points=[[0,0.5],[1,0.5]];portConstraint=eastwest;" vertex="1" parent="h9LaXiWzkKwQNLDJP15n-195">
          <mxGeometry y="90" width="230" height="30" as="geometry" />
        </mxCell>
        <mxCell id="h9LaXiWzkKwQNLDJP15n-205" value="" style="shape=partialRectangle;connectable=0;fillColor=none;top=0;left=0;bottom=0;right=0;editable=1;overflow=hidden;" vertex="1" parent="h9LaXiWzkKwQNLDJP15n-204">
          <mxGeometry width="30" height="30" as="geometry" />
        </mxCell>
        <mxCell id="h9LaXiWzkKwQNLDJP15n-206" value="title" style="shape=partialRectangle;connectable=0;fillColor=none;top=0;left=0;bottom=0;right=0;align=left;spacingLeft=6;overflow=hidden;" vertex="1" parent="h9LaXiWzkKwQNLDJP15n-204">
          <mxGeometry x="30" width="99.99999999999989" height="30" as="geometry" />
        </mxCell>
        <mxCell id="h9LaXiWzkKwQNLDJP15n-207" value="" style="shape=partialRectangle;connectable=0;fillColor=none;top=0;left=0;bottom=0;right=0;align=left;spacingLeft=6;overflow=hidden;" vertex="1" parent="h9LaXiWzkKwQNLDJP15n-204">
          <mxGeometry x="129.9999999999999" width="100.00000000000011" height="30" as="geometry" />
        </mxCell>
        <mxCell id="h9LaXiWzkKwQNLDJP15n-208" value="" style="shape=partialRectangle;collapsible=0;dropTarget=0;pointerEvents=0;fillColor=none;top=0;left=0;bottom=0;right=0;points=[[0,0.5],[1,0.5]];portConstraint=eastwest;" vertex="1" parent="h9LaXiWzkKwQNLDJP15n-195">
          <mxGeometry y="120" width="230" height="30" as="geometry" />
        </mxCell>
        <mxCell id="h9LaXiWzkKwQNLDJP15n-209" value="" style="shape=partialRectangle;connectable=0;fillColor=none;top=0;left=0;bottom=0;right=0;editable=1;overflow=hidden;" vertex="1" parent="h9LaXiWzkKwQNLDJP15n-208">
          <mxGeometry width="30" height="30" as="geometry" />
        </mxCell>
        <mxCell id="h9LaXiWzkKwQNLDJP15n-210" value="filename" style="shape=partialRectangle;connectable=0;fillColor=none;top=0;left=0;bottom=0;right=0;align=left;spacingLeft=6;overflow=hidden;" vertex="1" parent="h9LaXiWzkKwQNLDJP15n-208">
          <mxGeometry x="30" width="99.99999999999989" height="30" as="geometry" />
        </mxCell>
        <mxCell id="h9LaXiWzkKwQNLDJP15n-211" value="" style="shape=partialRectangle;connectable=0;fillColor=none;top=0;left=0;bottom=0;right=0;align=left;spacingLeft=6;overflow=hidden;" vertex="1" parent="h9LaXiWzkKwQNLDJP15n-208">
          <mxGeometry x="129.9999999999999" width="100.00000000000011" height="30" as="geometry" />
        </mxCell>
        <mxCell id="h9LaXiWzkKwQNLDJP15n-212" style="shape=partialRectangle;collapsible=0;dropTarget=0;pointerEvents=0;fillColor=none;top=0;left=0;bottom=0;right=0;points=[[0,0.5],[1,0.5]];portConstraint=eastwest;" vertex="1" parent="h9LaXiWzkKwQNLDJP15n-195">
          <mxGeometry y="150" width="230" height="30" as="geometry" />
        </mxCell>
        <mxCell id="h9LaXiWzkKwQNLDJP15n-213" style="shape=partialRectangle;connectable=0;fillColor=none;top=0;left=0;bottom=0;right=0;editable=1;overflow=hidden;" vertex="1" parent="h9LaXiWzkKwQNLDJP15n-212">
          <mxGeometry width="30" height="30" as="geometry" />
        </mxCell>
        <mxCell id="h9LaXiWzkKwQNLDJP15n-214" value="is_locked" style="shape=partialRectangle;connectable=0;fillColor=none;top=0;left=0;bottom=0;right=0;align=left;spacingLeft=6;overflow=hidden;" vertex="1" parent="h9LaXiWzkKwQNLDJP15n-212">
          <mxGeometry x="30" width="99.99999999999989" height="30" as="geometry" />
        </mxCell>
        <mxCell id="h9LaXiWzkKwQNLDJP15n-215" value="boolean,&#xa;default false" style="shape=partialRectangle;connectable=0;fillColor=none;top=0;left=0;bottom=0;right=0;align=left;spacingLeft=6;overflow=hidden;" vertex="1" parent="h9LaXiWzkKwQNLDJP15n-212">
          <mxGeometry x="129.9999999999999" width="100.00000000000011" height="30" as="geometry" />
        </mxCell>
        <mxCell id="h9LaXiWzkKwQNLDJP15n-216" style="shape=partialRectangle;collapsible=0;dropTarget=0;pointerEvents=0;fillColor=none;top=0;left=0;bottom=0;right=0;points=[[0,0.5],[1,0.5]];portConstraint=eastwest;" vertex="1" parent="h9LaXiWzkKwQNLDJP15n-195">
          <mxGeometry y="180" width="230" height="30" as="geometry" />
        </mxCell>
        <mxCell id="h9LaXiWzkKwQNLDJP15n-217" style="shape=partialRectangle;connectable=0;fillColor=none;top=0;left=0;bottom=0;right=0;editable=1;overflow=hidden;" vertex="1" parent="h9LaXiWzkKwQNLDJP15n-216">
          <mxGeometry width="30" height="30" as="geometry" />
        </mxCell>
        <mxCell id="h9LaXiWzkKwQNLDJP15n-218" value="deleted_at" style="shape=partialRectangle;connectable=0;fillColor=none;top=0;left=0;bottom=0;right=0;align=left;spacingLeft=6;overflow=hidden;" vertex="1" parent="h9LaXiWzkKwQNLDJP15n-216">
          <mxGeometry x="30" width="99.99999999999989" height="30" as="geometry" />
        </mxCell>
        <mxCell id="h9LaXiWzkKwQNLDJP15n-219" style="shape=partialRectangle;connectable=0;fillColor=none;top=0;left=0;bottom=0;right=0;align=left;spacingLeft=6;overflow=hidden;" vertex="1" parent="h9LaXiWzkKwQNLDJP15n-216">
          <mxGeometry x="129.9999999999999" width="100.00000000000011" height="30" as="geometry" />
        </mxCell>
        <mxCell id="h9LaXiWzkKwQNLDJP15n-228" value="payments" style="shape=table;startSize=30;container=1;collapsible=1;childLayout=tableLayout;fixedRows=1;rowLines=0;fontStyle=1;align=center;resizeLast=1;" vertex="1" parent="1">
          <mxGeometry x="580" y="505" width="230" height="190" as="geometry" />
        </mxCell>
        <mxCell id="h9LaXiWzkKwQNLDJP15n-229" value="" style="shape=partialRectangle;collapsible=0;dropTarget=0;pointerEvents=0;fillColor=none;top=0;left=0;bottom=1;right=0;points=[[0,0.5],[1,0.5]];portConstraint=eastwest;" vertex="1" parent="h9LaXiWzkKwQNLDJP15n-228">
          <mxGeometry y="30" width="230" height="30" as="geometry" />
        </mxCell>
        <mxCell id="h9LaXiWzkKwQNLDJP15n-230" value="PK" style="shape=partialRectangle;connectable=0;fillColor=none;top=0;left=0;bottom=0;right=0;fontStyle=1;overflow=hidden;" vertex="1" parent="h9LaXiWzkKwQNLDJP15n-229">
          <mxGeometry width="30" height="30" as="geometry" />
        </mxCell>
        <mxCell id="h9LaXiWzkKwQNLDJP15n-231" value="id" style="shape=partialRectangle;connectable=0;fillColor=none;top=0;left=0;bottom=0;right=0;align=left;spacingLeft=6;fontStyle=5;overflow=hidden;" vertex="1" parent="h9LaXiWzkKwQNLDJP15n-229">
          <mxGeometry x="30" width="99.99999999999989" height="30" as="geometry" />
        </mxCell>
        <mxCell id="h9LaXiWzkKwQNLDJP15n-232" value="unique" style="shape=partialRectangle;connectable=0;fillColor=none;top=0;left=0;bottom=0;right=0;align=left;spacingLeft=6;fontStyle=5;overflow=hidden;" vertex="1" parent="h9LaXiWzkKwQNLDJP15n-229">
          <mxGeometry x="129.9999999999999" width="100.00000000000011" height="30" as="geometry" />
        </mxCell>
        <mxCell id="h9LaXiWzkKwQNLDJP15n-233" value="" style="shape=partialRectangle;collapsible=0;dropTarget=0;pointerEvents=0;fillColor=none;top=0;left=0;bottom=0;right=0;points=[[0,0.5],[1,0.5]];portConstraint=eastwest;" vertex="1" parent="h9LaXiWzkKwQNLDJP15n-228">
          <mxGeometry y="60" width="230" height="30" as="geometry" />
        </mxCell>
        <mxCell id="h9LaXiWzkKwQNLDJP15n-234" value="FK" style="shape=partialRectangle;connectable=0;fillColor=none;top=0;left=0;bottom=0;right=0;editable=1;overflow=hidden;" vertex="1" parent="h9LaXiWzkKwQNLDJP15n-233">
          <mxGeometry width="30" height="30" as="geometry" />
        </mxCell>
        <mxCell id="h9LaXiWzkKwQNLDJP15n-235" value="user_id" style="shape=partialRectangle;connectable=0;fillColor=none;top=0;left=0;bottom=0;right=0;align=left;spacingLeft=6;overflow=hidden;" vertex="1" parent="h9LaXiWzkKwQNLDJP15n-233">
          <mxGeometry x="30" width="99.99999999999989" height="30" as="geometry" />
        </mxCell>
        <mxCell id="h9LaXiWzkKwQNLDJP15n-236" style="shape=partialRectangle;connectable=0;fillColor=none;top=0;left=0;bottom=0;right=0;align=left;spacingLeft=6;overflow=hidden;" vertex="1" parent="h9LaXiWzkKwQNLDJP15n-233">
          <mxGeometry x="129.9999999999999" width="100.00000000000011" height="30" as="geometry" />
        </mxCell>
        <mxCell id="h9LaXiWzkKwQNLDJP15n-237" value="" style="shape=partialRectangle;collapsible=0;dropTarget=0;pointerEvents=0;fillColor=none;top=0;left=0;bottom=0;right=0;points=[[0,0.5],[1,0.5]];portConstraint=eastwest;" vertex="1" parent="h9LaXiWzkKwQNLDJP15n-228">
          <mxGeometry y="90" width="230" height="30" as="geometry" />
        </mxCell>
        <mxCell id="h9LaXiWzkKwQNLDJP15n-238" value="" style="shape=partialRectangle;connectable=0;fillColor=none;top=0;left=0;bottom=0;right=0;editable=1;overflow=hidden;" vertex="1" parent="h9LaXiWzkKwQNLDJP15n-237">
          <mxGeometry width="30" height="30" as="geometry" />
        </mxCell>
        <mxCell id="h9LaXiWzkKwQNLDJP15n-239" value="payment_slip" style="shape=partialRectangle;connectable=0;fillColor=none;top=0;left=0;bottom=0;right=0;align=left;spacingLeft=6;overflow=hidden;" vertex="1" parent="h9LaXiWzkKwQNLDJP15n-237">
          <mxGeometry x="30" width="99.99999999999989" height="30" as="geometry" />
        </mxCell>
        <mxCell id="h9LaXiWzkKwQNLDJP15n-240" value="" style="shape=partialRectangle;connectable=0;fillColor=none;top=0;left=0;bottom=0;right=0;align=left;spacingLeft=6;overflow=hidden;" vertex="1" parent="h9LaXiWzkKwQNLDJP15n-237">
          <mxGeometry x="129.9999999999999" width="100.00000000000011" height="30" as="geometry" />
        </mxCell>
        <mxCell id="h9LaXiWzkKwQNLDJP15n-245" style="shape=partialRectangle;collapsible=0;dropTarget=0;pointerEvents=0;fillColor=none;top=0;left=0;bottom=0;right=0;points=[[0,0.5],[1,0.5]];portConstraint=eastwest;" vertex="1" parent="h9LaXiWzkKwQNLDJP15n-228">
          <mxGeometry y="120" width="230" height="30" as="geometry" />
        </mxCell>
        <mxCell id="h9LaXiWzkKwQNLDJP15n-246" style="shape=partialRectangle;connectable=0;fillColor=none;top=0;left=0;bottom=0;right=0;editable=1;overflow=hidden;" vertex="1" parent="h9LaXiWzkKwQNLDJP15n-245">
          <mxGeometry width="30" height="30" as="geometry" />
        </mxCell>
        <mxCell id="h9LaXiWzkKwQNLDJP15n-247" value="is_validated" style="shape=partialRectangle;connectable=0;fillColor=none;top=0;left=0;bottom=0;right=0;align=left;spacingLeft=6;overflow=hidden;" vertex="1" parent="h9LaXiWzkKwQNLDJP15n-245">
          <mxGeometry x="30" width="99.99999999999989" height="30" as="geometry" />
        </mxCell>
        <mxCell id="h9LaXiWzkKwQNLDJP15n-248" value="boolean,&#xa;default false" style="shape=partialRectangle;connectable=0;fillColor=none;top=0;left=0;bottom=0;right=0;align=left;spacingLeft=6;overflow=hidden;" vertex="1" parent="h9LaXiWzkKwQNLDJP15n-245">
          <mxGeometry x="129.9999999999999" width="100.00000000000011" height="30" as="geometry" />
        </mxCell>
        <mxCell id="h9LaXiWzkKwQNLDJP15n-249" style="shape=partialRectangle;collapsible=0;dropTarget=0;pointerEvents=0;fillColor=none;top=0;left=0;bottom=0;right=0;points=[[0,0.5],[1,0.5]];portConstraint=eastwest;" vertex="1" parent="h9LaXiWzkKwQNLDJP15n-228">
          <mxGeometry y="150" width="230" height="30" as="geometry" />
        </mxCell>
        <mxCell id="h9LaXiWzkKwQNLDJP15n-250" style="shape=partialRectangle;connectable=0;fillColor=none;top=0;left=0;bottom=0;right=0;editable=1;overflow=hidden;" vertex="1" parent="h9LaXiWzkKwQNLDJP15n-249">
          <mxGeometry width="30" height="30" as="geometry" />
        </mxCell>
        <mxCell id="h9LaXiWzkKwQNLDJP15n-251" value="deleted_at" style="shape=partialRectangle;connectable=0;fillColor=none;top=0;left=0;bottom=0;right=0;align=left;spacingLeft=6;overflow=hidden;" vertex="1" parent="h9LaXiWzkKwQNLDJP15n-249">
          <mxGeometry x="30" width="99.99999999999989" height="30" as="geometry" />
        </mxCell>
        <mxCell id="h9LaXiWzkKwQNLDJP15n-252" style="shape=partialRectangle;connectable=0;fillColor=none;top=0;left=0;bottom=0;right=0;align=left;spacingLeft=6;overflow=hidden;" vertex="1" parent="h9LaXiWzkKwQNLDJP15n-249">
          <mxGeometry x="129.9999999999999" width="100.00000000000011" height="30" as="geometry" />
        </mxCell>
        <mxCell id="h9LaXiWzkKwQNLDJP15n-253" value="" style="edgeStyle=entityRelationEdgeStyle;fontSize=12;html=1;endArrow=ERmandOne;startArrow=ERmandOne;" edge="1" parent="1" source="h9LaXiWzkKwQNLDJP15n-1" target="h9LaXiWzkKwQNLDJP15n-154">
          <mxGeometry width="100" height="100" relative="1" as="geometry">
            <mxPoint x="580" y="610" as="sourcePoint" />
            <mxPoint x="680" y="510" as="targetPoint" />
          </mxGeometry>
        </mxCell>
        <mxCell id="h9LaXiWzkKwQNLDJP15n-254" value="" style="edgeStyle=entityRelationEdgeStyle;fontSize=12;html=1;endArrow=ERmandOne;startArrow=ERmandOne;" edge="1" parent="1" source="h9LaXiWzkKwQNLDJP15n-154" target="h9LaXiWzkKwQNLDJP15n-228">
          <mxGeometry width="100" height="100" relative="1" as="geometry">
            <mxPoint x="580" y="610" as="sourcePoint" />
            <mxPoint x="680" y="510" as="targetPoint" />
          </mxGeometry>
        </mxCell>
        <mxCell id="h9LaXiWzkKwQNLDJP15n-255" value="" style="edgeStyle=entityRelationEdgeStyle;fontSize=12;html=1;endArrow=ERmandOne;startArrow=ERmandOne;" edge="1" parent="1" source="h9LaXiWzkKwQNLDJP15n-228" target="h9LaXiWzkKwQNLDJP15n-195">
          <mxGeometry width="100" height="100" relative="1" as="geometry">
            <mxPoint x="580" y="610" as="sourcePoint" />
            <mxPoint x="680" y="510" as="targetPoint" />
          </mxGeometry>
        </mxCell>
        <mxCell id="h9LaXiWzkKwQNLDJP15n-256" value="finals" style="shape=table;startSize=30;container=1;collapsible=1;childLayout=tableLayout;fixedRows=1;rowLines=0;fontStyle=1;align=center;resizeLast=1;" vertex="1" parent="1">
          <mxGeometry x="1120" y="460" width="230" height="280" as="geometry" />
        </mxCell>
        <mxCell id="h9LaXiWzkKwQNLDJP15n-257" value="" style="shape=partialRectangle;collapsible=0;dropTarget=0;pointerEvents=0;fillColor=none;top=0;left=0;bottom=1;right=0;points=[[0,0.5],[1,0.5]];portConstraint=eastwest;" vertex="1" parent="h9LaXiWzkKwQNLDJP15n-256">
          <mxGeometry y="30" width="230" height="30" as="geometry" />
        </mxCell>
        <mxCell id="h9LaXiWzkKwQNLDJP15n-258" value="PK" style="shape=partialRectangle;connectable=0;fillColor=none;top=0;left=0;bottom=0;right=0;fontStyle=1;overflow=hidden;" vertex="1" parent="h9LaXiWzkKwQNLDJP15n-257">
          <mxGeometry width="30" height="30" as="geometry" />
        </mxCell>
        <mxCell id="h9LaXiWzkKwQNLDJP15n-259" value="id" style="shape=partialRectangle;connectable=0;fillColor=none;top=0;left=0;bottom=0;right=0;align=left;spacingLeft=6;fontStyle=5;overflow=hidden;" vertex="1" parent="h9LaXiWzkKwQNLDJP15n-257">
          <mxGeometry x="30" width="99.99999999999989" height="30" as="geometry" />
        </mxCell>
        <mxCell id="h9LaXiWzkKwQNLDJP15n-260" value="unique" style="shape=partialRectangle;connectable=0;fillColor=none;top=0;left=0;bottom=0;right=0;align=left;spacingLeft=6;fontStyle=5;overflow=hidden;" vertex="1" parent="h9LaXiWzkKwQNLDJP15n-257">
          <mxGeometry x="129.9999999999999" width="100.00000000000011" height="30" as="geometry" />
        </mxCell>
        <mxCell id="h9LaXiWzkKwQNLDJP15n-261" value="" style="shape=partialRectangle;collapsible=0;dropTarget=0;pointerEvents=0;fillColor=none;top=0;left=0;bottom=0;right=0;points=[[0,0.5],[1,0.5]];portConstraint=eastwest;" vertex="1" parent="h9LaXiWzkKwQNLDJP15n-256">
          <mxGeometry y="60" width="230" height="30" as="geometry" />
        </mxCell>
        <mxCell id="h9LaXiWzkKwQNLDJP15n-262" value="FK" style="shape=partialRectangle;connectable=0;fillColor=none;top=0;left=0;bottom=0;right=0;editable=1;overflow=hidden;" vertex="1" parent="h9LaXiWzkKwQNLDJP15n-261">
          <mxGeometry width="30" height="30" as="geometry" />
        </mxCell>
        <mxCell id="h9LaXiWzkKwQNLDJP15n-263" value="user_id" style="shape=partialRectangle;connectable=0;fillColor=none;top=0;left=0;bottom=0;right=0;align=left;spacingLeft=6;overflow=hidden;" vertex="1" parent="h9LaXiWzkKwQNLDJP15n-261">
          <mxGeometry x="30" width="99.99999999999989" height="30" as="geometry" />
        </mxCell>
        <mxCell id="h9LaXiWzkKwQNLDJP15n-264" style="shape=partialRectangle;connectable=0;fillColor=none;top=0;left=0;bottom=0;right=0;align=left;spacingLeft=6;overflow=hidden;" vertex="1" parent="h9LaXiWzkKwQNLDJP15n-261">
          <mxGeometry x="129.9999999999999" width="100.00000000000011" height="30" as="geometry" />
        </mxCell>
        <mxCell id="h9LaXiWzkKwQNLDJP15n-265" value="" style="shape=partialRectangle;collapsible=0;dropTarget=0;pointerEvents=0;fillColor=none;top=0;left=0;bottom=0;right=0;points=[[0,0.5],[1,0.5]];portConstraint=eastwest;" vertex="1" parent="h9LaXiWzkKwQNLDJP15n-256">
          <mxGeometry y="90" width="230" height="30" as="geometry" />
        </mxCell>
        <mxCell id="h9LaXiWzkKwQNLDJP15n-266" value="" style="shape=partialRectangle;connectable=0;fillColor=none;top=0;left=0;bottom=0;right=0;editable=1;overflow=hidden;" vertex="1" parent="h9LaXiWzkKwQNLDJP15n-265">
          <mxGeometry width="30" height="30" as="geometry" />
        </mxCell>
        <mxCell id="h9LaXiWzkKwQNLDJP15n-267" value="title" style="shape=partialRectangle;connectable=0;fillColor=none;top=0;left=0;bottom=0;right=0;align=left;spacingLeft=6;overflow=hidden;" vertex="1" parent="h9LaXiWzkKwQNLDJP15n-265">
          <mxGeometry x="30" width="99.99999999999989" height="30" as="geometry" />
        </mxCell>
        <mxCell id="h9LaXiWzkKwQNLDJP15n-268" value="" style="shape=partialRectangle;connectable=0;fillColor=none;top=0;left=0;bottom=0;right=0;align=left;spacingLeft=6;overflow=hidden;" vertex="1" parent="h9LaXiWzkKwQNLDJP15n-265">
          <mxGeometry x="129.9999999999999" width="100.00000000000011" height="30" as="geometry" />
        </mxCell>
        <mxCell id="h9LaXiWzkKwQNLDJP15n-269" value="" style="shape=partialRectangle;collapsible=0;dropTarget=0;pointerEvents=0;fillColor=none;top=0;left=0;bottom=0;right=0;points=[[0,0.5],[1,0.5]];portConstraint=eastwest;" vertex="1" parent="h9LaXiWzkKwQNLDJP15n-256">
          <mxGeometry y="120" width="230" height="30" as="geometry" />
        </mxCell>
        <mxCell id="h9LaXiWzkKwQNLDJP15n-270" value="" style="shape=partialRectangle;connectable=0;fillColor=none;top=0;left=0;bottom=0;right=0;editable=1;overflow=hidden;" vertex="1" parent="h9LaXiWzkKwQNLDJP15n-269">
          <mxGeometry width="30" height="30" as="geometry" />
        </mxCell>
        <mxCell id="h9LaXiWzkKwQNLDJP15n-271" value="poster" style="shape=partialRectangle;connectable=0;fillColor=none;top=0;left=0;bottom=0;right=0;align=left;spacingLeft=6;overflow=hidden;" vertex="1" parent="h9LaXiWzkKwQNLDJP15n-269">
          <mxGeometry x="30" width="99.99999999999989" height="30" as="geometry" />
        </mxCell>
        <mxCell id="h9LaXiWzkKwQNLDJP15n-272" value="" style="shape=partialRectangle;connectable=0;fillColor=none;top=0;left=0;bottom=0;right=0;align=left;spacingLeft=6;overflow=hidden;" vertex="1" parent="h9LaXiWzkKwQNLDJP15n-269">
          <mxGeometry x="129.9999999999999" width="100.00000000000011" height="30" as="geometry" />
        </mxCell>
        <mxCell id="h9LaXiWzkKwQNLDJP15n-281" style="shape=partialRectangle;collapsible=0;dropTarget=0;pointerEvents=0;fillColor=none;top=0;left=0;bottom=0;right=0;points=[[0,0.5],[1,0.5]];portConstraint=eastwest;" vertex="1" parent="h9LaXiWzkKwQNLDJP15n-256">
          <mxGeometry y="150" width="230" height="30" as="geometry" />
        </mxCell>
        <mxCell id="h9LaXiWzkKwQNLDJP15n-282" style="shape=partialRectangle;connectable=0;fillColor=none;top=0;left=0;bottom=0;right=0;editable=1;overflow=hidden;" vertex="1" parent="h9LaXiWzkKwQNLDJP15n-281">
          <mxGeometry width="30" height="30" as="geometry" />
        </mxCell>
        <mxCell id="h9LaXiWzkKwQNLDJP15n-283" value="powerpoint" style="shape=partialRectangle;connectable=0;fillColor=none;top=0;left=0;bottom=0;right=0;align=left;spacingLeft=6;overflow=hidden;" vertex="1" parent="h9LaXiWzkKwQNLDJP15n-281">
          <mxGeometry x="30" width="99.99999999999989" height="30" as="geometry" />
        </mxCell>
        <mxCell id="h9LaXiWzkKwQNLDJP15n-284" value="url" style="shape=partialRectangle;connectable=0;fillColor=none;top=0;left=0;bottom=0;right=0;align=left;spacingLeft=6;overflow=hidden;" vertex="1" parent="h9LaXiWzkKwQNLDJP15n-281">
          <mxGeometry x="129.9999999999999" width="100.00000000000011" height="30" as="geometry" />
        </mxCell>
        <mxCell id="h9LaXiWzkKwQNLDJP15n-285" style="shape=partialRectangle;collapsible=0;dropTarget=0;pointerEvents=0;fillColor=none;top=0;left=0;bottom=0;right=0;points=[[0,0.5],[1,0.5]];portConstraint=eastwest;" vertex="1" parent="h9LaXiWzkKwQNLDJP15n-256">
          <mxGeometry y="180" width="230" height="30" as="geometry" />
        </mxCell>
        <mxCell id="h9LaXiWzkKwQNLDJP15n-286" style="shape=partialRectangle;connectable=0;fillColor=none;top=0;left=0;bottom=0;right=0;editable=1;overflow=hidden;" vertex="1" parent="h9LaXiWzkKwQNLDJP15n-285">
          <mxGeometry width="30" height="30" as="geometry" />
        </mxCell>
        <mxCell id="h9LaXiWzkKwQNLDJP15n-287" value="video" style="shape=partialRectangle;connectable=0;fillColor=none;top=0;left=0;bottom=0;right=0;align=left;spacingLeft=6;overflow=hidden;" vertex="1" parent="h9LaXiWzkKwQNLDJP15n-285">
          <mxGeometry x="30" width="99.99999999999989" height="30" as="geometry" />
        </mxCell>
        <mxCell id="h9LaXiWzkKwQNLDJP15n-288" value="url" style="shape=partialRectangle;connectable=0;fillColor=none;top=0;left=0;bottom=0;right=0;align=left;spacingLeft=6;overflow=hidden;" vertex="1" parent="h9LaXiWzkKwQNLDJP15n-285">
          <mxGeometry x="129.9999999999999" width="100.00000000000011" height="30" as="geometry" />
        </mxCell>
        <mxCell id="h9LaXiWzkKwQNLDJP15n-273" style="shape=partialRectangle;collapsible=0;dropTarget=0;pointerEvents=0;fillColor=none;top=0;left=0;bottom=0;right=0;points=[[0,0.5],[1,0.5]];portConstraint=eastwest;" vertex="1" parent="h9LaXiWzkKwQNLDJP15n-256">
          <mxGeometry y="210" width="230" height="30" as="geometry" />
        </mxCell>
        <mxCell id="h9LaXiWzkKwQNLDJP15n-274" style="shape=partialRectangle;connectable=0;fillColor=none;top=0;left=0;bottom=0;right=0;editable=1;overflow=hidden;" vertex="1" parent="h9LaXiWzkKwQNLDJP15n-273">
          <mxGeometry width="30" height="30" as="geometry" />
        </mxCell>
        <mxCell id="h9LaXiWzkKwQNLDJP15n-275" value="is_locked" style="shape=partialRectangle;connectable=0;fillColor=none;top=0;left=0;bottom=0;right=0;align=left;spacingLeft=6;overflow=hidden;" vertex="1" parent="h9LaXiWzkKwQNLDJP15n-273">
          <mxGeometry x="30" width="99.99999999999989" height="30" as="geometry" />
        </mxCell>
        <mxCell id="h9LaXiWzkKwQNLDJP15n-276" value="boolean,&#xa;default false" style="shape=partialRectangle;connectable=0;fillColor=none;top=0;left=0;bottom=0;right=0;align=left;spacingLeft=6;overflow=hidden;" vertex="1" parent="h9LaXiWzkKwQNLDJP15n-273">
          <mxGeometry x="129.9999999999999" width="100.00000000000011" height="30" as="geometry" />
        </mxCell>
        <mxCell id="h9LaXiWzkKwQNLDJP15n-277" style="shape=partialRectangle;collapsible=0;dropTarget=0;pointerEvents=0;fillColor=none;top=0;left=0;bottom=0;right=0;points=[[0,0.5],[1,0.5]];portConstraint=eastwest;" vertex="1" parent="h9LaXiWzkKwQNLDJP15n-256">
          <mxGeometry y="240" width="230" height="30" as="geometry" />
        </mxCell>
        <mxCell id="h9LaXiWzkKwQNLDJP15n-278" style="shape=partialRectangle;connectable=0;fillColor=none;top=0;left=0;bottom=0;right=0;editable=1;overflow=hidden;" vertex="1" parent="h9LaXiWzkKwQNLDJP15n-277">
          <mxGeometry width="30" height="30" as="geometry" />
        </mxCell>
        <mxCell id="h9LaXiWzkKwQNLDJP15n-279" value="deleted_at" style="shape=partialRectangle;connectable=0;fillColor=none;top=0;left=0;bottom=0;right=0;align=left;spacingLeft=6;overflow=hidden;" vertex="1" parent="h9LaXiWzkKwQNLDJP15n-277">
          <mxGeometry x="30" width="99.99999999999989" height="30" as="geometry" />
        </mxCell>
        <mxCell id="h9LaXiWzkKwQNLDJP15n-280" style="shape=partialRectangle;connectable=0;fillColor=none;top=0;left=0;bottom=0;right=0;align=left;spacingLeft=6;overflow=hidden;" vertex="1" parent="h9LaXiWzkKwQNLDJP15n-277">
          <mxGeometry x="129.9999999999999" width="100.00000000000011" height="30" as="geometry" />
        </mxCell>
        <mxCell id="h9LaXiWzkKwQNLDJP15n-289" value="" style="edgeStyle=entityRelationEdgeStyle;fontSize=12;html=1;endArrow=ERmandOne;startArrow=ERmandOne;" edge="1" parent="1" source="h9LaXiWzkKwQNLDJP15n-195" target="h9LaXiWzkKwQNLDJP15n-256">
          <mxGeometry width="100" height="100" relative="1" as="geometry">
            <mxPoint x="840" y="580" as="sourcePoint" />
            <mxPoint x="940" y="480" as="targetPoint" />
          </mxGeometry>
        </mxCell>
      </root>
    </mxGraphModel>
  </diagram>
</mxfile>
